<?xml version="1.0" encoding="UTF-8" standalone="no"?>
<!DOCTYPE svg PUBLIC "-//W3C//DTD SVG 1.1//EN" "http://www.w3.org/Graphics/SVG/1.1/DTD/svg11.dtd">
<svg width="100%" height="100%" viewBox="0 0 938 435" version="1.1" xmlns="http://www.w3.org/2000/svg" xmlns:xlink="http://www.w3.org/1999/xlink" xml:space="preserve" xmlns:serif="http://www.serif.com/" style="fill-rule:evenodd;clip-rule:evenodd;stroke-linejoin:round;stroke-miterlimit:2;">
    <g transform="matrix(1,0,0,1,-3.782,-2.84217e-14)">
        <g>
            <g id="eYrAuP280NH3" transform="matrix(1,0,0,2e-06,-10.656,188.713)">
                <rect x="0" y="0" width="143.128" height="151.142" style="fill:white;"/>
            </g>
            <g id="eYrAuP280NH4" transform="matrix(1,0,0,2e-06,192.195,180.36)">
                <rect x="0" y="0" width="143.128" height="260.85" style="fill:white;"/>
            </g>
            <g id="eYrAuP280NH5" transform="matrix(1,0,0,2e-06,598.536,188.713)">
                <rect x="0" y="0" width="143.128" height="260.85" style="fill:white;"/>
            </g>
            <g id="eYrAuP280NH6" transform="matrix(1,0,0,2e-06,395.674,188.713)">
                <rect x="0" y="0" width="143.128" height="151.142" style="fill:white;"/>
            </g>
            <g id="eYrAuP280NH7" transform="matrix(1,0,0,2e-06,-66.598,188.713)">
                <rect x="867.996" y="68.697" width="143.127" height="290.195" style="fill:white;fill-rule:nonzero;"/>
            </g>
            <g id="eYrAuP280NH9" transform="matrix(1,0,0,2e-06,192.195,375.472)">
                <rect x="0" y="0" width="143.128" height="151.142" style="fill:white;"/>
            </g>
            <g id="eYrAuP280NH10" transform="matrix(1,0,0,1,-66.598,-349.33)">
                <path d="M311.188,529.692L311.188,568.236L292.07,568.236L292.07,586.747L311.188,586.747L311.188,692.687C311.188,710.395 325.595,724.802 343.304,724.802L368.642,724.802L368.642,703.14L345.066,703.14C338.331,703.14 332.852,697.661 332.852,690.925L332.852,586.747L362.399,586.747L362.399,568.236L332.852,568.236L332.852,529.692L311.188,529.692Z" style="fill:white;fill-rule:nonzero;"/>
            </g>
            <g id="eYrAuP280NH12" transform="matrix(1,0,0,2e-06,-66.598,375.472)">
                <rect x="55.942" y="599.542" width="143.128" height="295.691" style="fill:white;fill-rule:nonzero;"/>
            </g>
            <g id="eYrAuP280NH13" transform="matrix(1,0,0,1,-66.598,-204.167)">
                <path d="M70.38,526.465L70.38,579.639L89.287,579.639L89.287,569.995C91.019,571.001 92.816,571.956 94.667,572.857C102.258,576.505 110.782,578.709 119.975,579.409C120.148,579.423 120.315,579.432 120.481,579.438L120.808,579.457C122.086,579.537 123.174,579.573 124.176,579.573C124.636,579.596 125.106,579.622 125.457,579.616C126.061,579.639 126.668,579.639 127.296,579.639C145.542,579.639 159.777,575.506 169.606,567.357C179.577,559.096 184.632,548.382 184.632,535.512C184.632,523.307 180.117,513.235 171.212,505.574C162.598,498.122 148.615,492.168 129.666,487.879C119.71,485.572 112.005,483.094 106.772,480.52C101.909,478.099 98.63,475.419 97.022,472.544C95.371,469.626 94.535,466.099 94.535,462.064C94.535,455.913 97.204,450.633 102.69,445.927C106.796,442.426 112.318,440.185 119.106,439.269L119.251,439.255C120.569,439.117 122.008,439.048 123.526,439.048C128.598,439.048 133.305,439.626 137.453,440.749L138.049,440.918C138.201,440.967 138.37,441.016 138.56,441.065C142.291,442.254 154.414,446.846 158.784,457.333C159.281,458.513 159.664,459.7 159.923,460.862C160.262,462.378 160.434,463.997 160.434,465.679L160.434,466.825L160.984,473.159L179.341,473.159L179.341,419.985L160.434,419.985L160.434,429.627C158.705,428.623 156.907,427.668 155.056,426.768C146.355,422.577 136.431,420.303 125.455,420.006C115.272,420.142 106.206,421.994 98.511,425.508C90.384,429.201 83.992,434.334 79.513,440.759C75.004,447.215 72.718,454.569 72.718,462.614C72.718,468.905 73.876,474.576 76.156,479.468C78.303,484.095 81.468,488.122 85.564,491.438C93.785,498.082 107.13,503.441 125.216,507.363C139.568,510.558 149.606,514.718 155.046,519.724C158.609,523.022 162.055,530.358 162.055,530.358C162.055,530.358 162.949,534.252 162.949,536.35C162.949,543.044 160.06,548.689 154.113,553.611C148.107,558.598 139.086,561.128 127.299,561.128C125.797,561.128 124.296,561.088 122.834,561.008L122.495,560.974C118.953,560.656 115.56,559.752 112.27,558.876L111.715,558.718C111.555,558.666 111.371,558.613 111.164,558.559C107.433,557.37 95.309,552.779 90.948,542.312C90.472,541.153 90.121,540.092 89.876,539.08L89.78,538.668C89.455,537.18 89.29,535.591 89.29,533.945L89.29,526.465L70.38,526.465Z" style="fill:white;fill-rule:nonzero;"/>
            </g>
            <g id="eYrAuP280NH15" transform="matrix(1,0,0,2e-06,-66.598,375.472)">
                <rect x="462.272" y="599.537" width="143.128" height="295.696" style="fill:white;fill-rule:nonzero;"/>
            </g>
            <g id="eYrAuP280NH16" transform="matrix(1,0,0,1,-66.598,-204.142)">
                <path d="M465.762,420.006L465.762,438.59L484.196,438.59L484.196,511.202C484.196,534.184 488.767,551.485 497.782,562.627C506.923,573.899 519.839,579.614 536.173,579.614C547.711,579.614 557.72,577.069 565.919,572.052C571.662,568.549 576.635,563.985 580.774,558.428L580.774,579.614L601.909,579.614L601.909,420.006L558.9,420.006L558.9,438.59L580.091,438.59L580.091,529.53C577.555,538.85 572.914,546.366 566.289,551.876C559.664,557.406 550.176,560.211 538.09,560.211C527.587,560.211 519.804,556.634 514.297,549.277C508.712,541.791 505.88,529.07 505.88,511.469L505.88,420.006L465.762,420.006Z" style="fill:white;fill-rule:nonzero;"/>
            </g>
            <g id="eYrAuP280NH18" transform="matrix(1,0,0,2e-06,-67.731,375.472)">
                <rect x="867.996" y="599.542" width="143.127" height="295.691" style="fill:white;fill-rule:nonzero;"/>
            </g>
            <g id="eYrAuP280NH19" transform="matrix(1,0,0,1,-66.598,-145)">
                <path d="M905.181,380.442L872.597,380.442L872.597,398.456L889.596,398.456L935.932,512.119L928.615,531.347C925.26,539.736 921.347,549.286 917.348,553.766C913.601,557.963 908.649,560.003 902.209,560.003L887.1,560.003L887.1,579.616L902.761,579.616C911.066,579.616 918.123,577.946 923.745,574.648C929.329,571.349 934.021,566.734 937.688,560.931C941.216,555.371 944.436,548.933 947.269,541.77L1007.98,380.443L960.447,380.443L960.447,398.457L979.025,398.457L946.445,484.992L942.214,473.448L914.406,403.607L914.429,403.607L905.181,380.442Z" style="fill:white;fill-rule:nonzero;"/>
            </g>
            <g id="eYrAuP280NH21" transform="matrix(1,0,0,2e-06,598.536,375.472)">
                <rect x="0" y="0" width="143.128" height="151.142" style="fill:white;"/>
            </g>
            <g id="eYrAuP280NH22" transform="matrix(1,0,0,1,-66.598,-349.335)">
                <path d="M767.917,595.413C766.847,594.707 765.714,594.058 764.452,593.427C761.734,592.069 758.599,590.881 754.873,589.798C737.381,584.671 718.613,586.351 704.608,594.319C704.383,594.442 704.176,594.56 703.969,594.705C703.547,594.96 703.148,595.211 702.832,595.413C702.661,595.51 702.498,595.625 702.302,595.775C702.246,595.809 702.19,595.847 702.133,595.886C699.825,597.375 697.856,598.852 696.112,600.402C692.995,603.178 690.218,606.37 687.853,609.894L687.643,610.208C687.164,610.925 686.675,611.657 686.219,612.392C685.908,612.894 685.597,613.398 685.347,613.859C684.949,614.537 684.574,615.24 684.264,615.845C683.525,617.164 682.834,618.554 682.152,620.09C678.346,628.629 676.084,638.532 675.432,649.459L675.362,650.271C674.987,655.811 675.017,661.263 675.453,666.456L675.522,667.313C677.037,683.573 682.438,697.323 691.141,707.075C692.324,708.398 693.594,709.668 694.851,710.79C695.422,711.336 696.015,711.839 696.633,712.358C697.588,713.141 698.546,713.861 699.402,714.442C699.95,714.849 700.499,715.23 701.025,715.572C701.66,715.996 702.294,716.395 702.921,716.767C703.628,717.19 704.337,717.592 705.018,717.942C705.553,718.234 706.087,718.501 706.725,718.82C707.261,719.076 707.797,719.331 708.301,719.55C708.996,719.862 709.716,720.172 710.341,720.4C717.445,723.323 725.603,724.807 734.587,724.807C745.281,724.807 754.79,722.959 762.852,719.315C763.035,719.254 763.182,719.189 763.29,719.138C768.943,716.821 773.417,713.926 776.957,710.3C776.992,710.263 777.029,710.224 777.067,710.183C777.115,710.139 777.158,710.099 777.196,710.061C777.436,709.84 777.674,709.615 777.912,709.387L777.912,724.804L799.046,724.804L799.046,529.695L758.926,529.695L758.926,548.273L777.36,548.273L777.36,592.072L777.419,602.958C774.886,600.412 772.138,598.167 769.211,596.253C768.764,595.948 768.319,595.664 767.917,595.413ZM777.554,628.331L777.856,686.809C777.198,687.836 776.593,688.713 775.987,689.52C775.928,689.586 775.859,689.666 775.788,689.762C769.663,697.05 761.574,702.687 752.988,705.645C749.32,706.925 745.579,707.718 741.855,708.002C736.839,708.412 731.568,707.842 726.612,706.357C717.089,703.546 708.906,697.553 704.047,689.856L704.043,689.53L703.528,689C698.89,681.187 696.765,671.103 696.844,657.294C696.897,644.902 698.587,635.504 702.164,627.713L702.241,627.529C702.362,627.201 702.522,626.89 702.689,626.557C703.24,625.43 703.725,624.524 704.227,623.688C709.622,614.514 718.86,607.64 729.606,604.787L729.969,604.704C734.723,603.47 739.485,603.096 744.133,603.606C748.238,604.034 752.349,605.17 756.357,606.984L756.474,607.093L756.876,607.227C766.063,611.568 773.572,619.238 777.554,628.331Z" style="fill:white;fill-rule:nonzero;"/>
            </g>
        </g>
        <g transform="matrix(1,0,0,1,7.10726,0)">
            <g id="eYrAuP280NH24" transform="matrix(1,0,0,1,-66.598,-68.701)">
                <path d="M97.447,219.121C107.306,225.717 118.992,229.061 132.181,229.061C144.059,229.061 154.808,226.779 164.138,222.275C165.985,221.375 167.78,220.421 169.506,219.419L169.506,229.061L188.413,229.061L188.413,166.804L169.506,166.804L169.506,183.369C169.506,186.387 168.968,189.114 167.852,191.723C163.486,202.202 151.363,206.794 147.632,207.982C147.448,208.03 147.281,208.078 147.132,208.126C146.792,208.22 146.584,208.282 146.573,208.286C142.367,209.423 137.665,210 132.599,210C123.855,210 116.086,207.53 109.508,202.657C102.833,197.714 97.589,190.832 93.919,182.198C90.026,173.091 88.284,158.349 88.284,147.779C88.284,135.862 90.391,123.82 93.922,115.56C97.59,106.931 102.834,100.049 109.508,95.106C116.086,90.234 123.855,87.763 132.599,87.763C137.671,87.763 142.377,88.341 146.512,89.46C146.512,89.46 146.733,89.527 147.133,89.638C147.282,89.686 147.448,89.734 147.633,89.782C151.364,90.97 163.487,95.562 167.862,106.061C168.969,108.65 169.507,111.376 169.507,114.394L169.507,130.959L188.414,130.959L188.414,68.702L169.507,68.702L169.507,78.345C167.779,77.343 165.983,76.386 164.131,75.486C154.806,70.984 144.057,68.701 132.181,68.701C118.993,68.701 107.307,72.046 97.445,78.644C87.644,85.217 79.957,94.408 74.598,105.967C69.514,116.959 66.598,132.198 66.598,147.779C66.598,160.697 68.7,179.045 74.599,191.798C79.958,203.356 87.644,212.547 97.447,219.121Z" style="fill:white;fill-rule:nonzero;"/>
            </g>
            <g id="eYrAuP280NH25" transform="matrix(1,0,0,1,-66.598,-68.64)">
                <path d="M284.208,217.03C292.64,224.972 304.395,229 319.145,229C321.951,229 324.676,228.837 327.246,228.515L327.442,228.496C335.475,227.512 343.06,225.024 349.989,221.102C356.817,217.231 362.718,212.464 367.606,206.88L367.606,228.992L389.27,228.992L389.27,121.742C389.27,105.465 384.231,92.514 374.289,83.246C364.75,74.38 351.266,69.711 334.213,69.369L333.987,69.37C323.065,69.64 313.101,71.915 304.366,76.133C302.521,77.031 300.727,77.985 298.997,78.99L298.997,69.346L280.089,69.346L280.089,131.604L298.997,131.604L298.997,115.04C298.997,114.888 298.993,114.751 299.006,114.613L299.019,114.355C299.019,113.848 299.04,113.45 299.085,113.1L299.117,112.731C299.327,110.574 299.824,108.603 300.651,106.683C305.014,96.21 317.126,91.618 320.865,90.426C321.051,90.378 321.22,90.33 321.37,90.281C321.712,90.186 321.921,90.124 321.93,90.121C326.132,88.984 330.833,88.407 335.904,88.407L335.956,88.407C345.944,89.035 353.62,92.036 358.767,97.323C364.715,103.456 367.607,111.35 367.607,121.454L367.607,135.936L339.366,135.936C325.7,135.936 313.695,137.94 303.691,141.893C293.54,145.88 285.556,151.598 279.966,158.884C274.313,166.219 271.446,174.873 271.446,184.606C271.445,198.122 275.738,209.029 284.208,217.03ZM293.891,178.754C295.369,172.839 299.117,167.564 305.033,163.072C313.135,156.897 324.642,153.765 339.232,153.765L367.605,153.765L367.605,181.933C363.526,190.076 357.177,196.723 348.722,201.699C341.457,205.991 333.725,208.506 325.711,209.179C324.249,209.319 322.728,209.387 321.063,209.387C312.401,209.387 305.492,207.111 300.517,202.616C295.532,198.149 293.108,192.438 293.108,185.159C293.108,182.944 293.37,180.793 293.891,178.754Z" style="fill:white;fill-rule:nonzero;"/>
            </g>
            <g id="eYrAuP280NH26" transform="matrix(1,0,0,1,-66.598,-69.339)">
                <path d="M495.617,219.349C497.348,220.354 499.146,221.31 500.997,222.211C508.589,225.858 517.112,228.061 526.305,228.762C526.478,228.777 526.644,228.786 526.811,228.792L527.141,228.811C528.4,228.888 529.468,228.925 530.494,228.926C530.958,228.95 531.411,228.979 531.783,228.968C532.39,228.992 532.997,228.993 533.627,228.993C551.871,228.993 566.107,224.86 575.937,216.711C585.908,208.45 590.963,197.734 590.963,184.865C590.963,172.661 586.449,162.59 577.544,154.928C568.927,147.474 554.945,141.519 535.997,137.233C526.045,134.926 518.339,132.448 513.103,129.874C508.239,127.452 504.96,124.772 503.352,121.895C501.702,118.979 500.865,115.454 500.865,111.417C500.865,105.265 503.535,99.985 509.02,95.279C513.126,91.779 518.648,89.538 525.434,88.622L525.581,88.608C526.898,88.47 528.337,88.401 529.856,88.401C534.928,88.401 539.634,88.979 543.783,90.102L544.379,90.271C544.53,90.32 544.7,90.369 544.89,90.419C548.623,91.608 560.745,96.2 565.114,106.687C565.613,107.871 565.996,109.057 566.253,110.216C566.592,111.733 566.764,113.354 566.764,115.031L566.764,116.178L567.313,122.511L585.671,122.511L585.671,69.339L566.764,69.339L566.764,78.981C565.035,77.977 563.238,77.022 561.386,76.121C552.684,71.93 542.76,69.656 531.785,69.361C521.602,69.497 512.536,71.349 504.841,74.863C496.713,78.558 490.32,83.689 485.843,90.112C481.334,96.57 479.048,103.922 479.048,111.967C479.048,118.259 480.206,123.932 482.486,128.822C484.634,133.452 487.799,137.477 491.893,140.791C500.112,147.436 513.457,152.795 531.544,156.717C545.899,159.913 555.936,164.073 561.373,169.078C564.937,172.376 567.225,175.842 568.382,179.714C568.975,181.587 569.275,183.602 569.275,185.703C569.275,192.397 566.387,198.043 560.441,202.964C554.434,207.952 545.412,210.482 533.626,210.482C532.125,210.482 530.624,210.442 529.162,210.362L528.823,210.328C525.293,210.011 521.911,209.111 518.599,208.23L518.061,208.078C517.895,208.022 517.706,207.967 517.49,207.911C513.76,206.723 501.638,202.136 497.275,191.665C496.801,190.51 496.449,189.45 496.204,188.434L496.107,188.024C495.782,186.536 495.617,184.947 495.617,183.299L495.617,175.819L476.71,175.819L476.71,228.993L495.617,228.993L495.617,219.349Z" style="fill:white;fill-rule:nonzero;"/>
            </g>
            <g id="eYrAuP280NH27" transform="matrix(1,0,0,1,-66.598,-68.3076)">
                <path d="M689.005,202.872C705.191,225.006 731.692,232.442 757.861,226.921C762.893,225.861 767.829,224.326 772.575,222.365C782.242,218.362 791.181,212.587 798.697,205.293C795.643,200.404 792.59,195.531 789.536,190.642C784.995,194.566 780.028,197.983 774.775,200.863C770.266,203.331 765.519,205.388 760.63,206.97C760.171,207.112 759.728,207.255 759.269,207.381C759.237,207.412 759.206,207.428 759.158,207.428C755.06,208.884 751.327,209.611 748.257,209.959C748.146,209.991 748.02,210.007 747.909,210.007C743.78,210.434 740.916,210.165 740.093,210.07C739.935,210.054 739.856,210.038 739.856,210.038C729.651,209.468 719.636,205.465 712.184,198.472C702.343,189.216 697.613,175.784 696.394,162.162C696.141,159.361 696.046,156.545 696.078,153.761C732.5,153.761 768.936,153.761 805.358,153.745C807.178,137.591 804.362,120.757 797.036,106.359C793.618,99.635 789.22,93.449 783.841,88.101C766.944,71.283 740.237,64.179 717.975,72.722C704.258,77.975 692.961,88.607 685.573,101.296C678.184,113.985 674.545,128.636 673.628,143.286C673.153,150.627 673.391,158.079 674.451,165.389C676.364,178.887 681,191.908 689.005,202.872ZM701.631,120.774C703.15,116.423 704.985,112.23 707.106,108.196L707.169,108.259C710.255,102.231 714.605,97.406 720.08,93.909C725.444,90.475 731.978,88.64 739.509,88.419L740.142,88.419C747.673,88.641 754.224,90.476 759.571,93.909C764.618,97.136 768.716,101.487 771.754,106.882L771.849,106.803C772.672,108.322 773.463,109.856 774.207,111.423C777.198,117.673 779.523,124.27 781.121,131.168C781.422,132.402 781.674,133.636 781.912,134.87L697.788,134.87C698.72,130.03 700.001,125.331 701.631,120.774Z" style="fill:white;fill-rule:nonzero;"/>
            </g>
        </g>
    </g>
</svg>
