<?xml version="1.0" standalone="no"?>
<!DOCTYPE svg PUBLIC "-//W3C//DTD SVG 20010904//EN"
 "http://www.w3.org/TR/2001/REC-SVG-20010904/DTD/svg10.dtd">
<svg version="1.0" xmlns="http://www.w3.org/2000/svg"
 width="1067.000000pt" height="1067.000000pt" viewBox="0 0 1067.000000 1067.000000"
 preserveAspectRatio="xMidYMid meet">
<metadata>
Created by potrace 1.14, written by Peter Selinger 2001-2017
</metadata>
<g transform="translate(0.000000,1067.000000) scale(0.100000,-0.100000)"
fill="#000000" stroke="none">
<path d="M1307 9464 c-1 -1 -29 -4 -62 -7 -55 -6 -100 -13 -100 -17 0 -1 -11
-4 -25 -6 -13 -3 -29 -9 -34 -14 -6 -6 -16 -10 -24 -10 -24 0 -145 -86 -192
-137 -25 -26 -57 -67 -72 -89 -36 -55 -89 -173 -92 -204 -2 -14 -6 -32 -9 -40
-15 -37 -29 -159 -30 -255 0 -77 16 -270 23 -270 1 0 4 -11 7 -25 6 -32 11
-54 13 -60 1 -3 3 -9 4 -15 1 -5 9 -27 19 -49 9 -21 17 -40 17 -42 0 -16 80
-132 117 -171 71 -74 182 -147 236 -157 12 -3 22 -5 22 -6 0 -1 7 -3 15 -5 8
-2 29 -7 45 -11 39 -10 239 -10 290 0 22 4 46 8 53 8 6 1 12 4 12 8 0 3 9 6
20 7 11 1 43 13 71 27 28 15 54 24 58 21 5 -2 7 -23 5 -45 l-3 -40 95 0 c68 0
94 3 95 13 1 6 2 146 3 309 1 193 -3 298 -9 299 -50 3 -175 3 -176 -1 -1 -3
-2 -48 -3 -100 -4 -139 -20 -180 -97 -245 -31 -26 -100 -60 -116 -57 -7 2 -13
-1 -13 -6 0 -10 -5 -11 -88 -16 -34 -1 -65 -6 -68 -9 -3 -3 -18 -1 -32 4 -15
4 -38 10 -52 11 -70 9 -171 83 -245 179 -24 32 -69 143 -80 200 -24 119 -24
400 0 439 2 3 7 22 10 41 17 96 114 237 202 292 113 71 279 79 408 18 127 -60
168 -129 169 -284 l1 -102 95 0 95 0 0 303 c0 188 -4 306 -10 310 -12 7 -175
9 -176 2 -1 -3 -2 -23 -4 -45 -1 -22 -3 -41 -4 -42 0 -1 -29 11 -63 27 -34 16
-65 27 -70 24 -4 -3 -8 -1 -8 4 0 5 -6 9 -12 10 -20 1 -73 10 -73 12 0 4 -154
18 -158 14z"/>
<path d="M8689 9459 c-8 -4 -15 -2248 -9 -2861 l0 -38 715 0 715 0 0 1453 0
1452 -706 0 c-388 0 -710 -3 -715 -6z"/>
<path d="M2806 9441 c-3 -9 -5 -48 -5 -88 0 -39 -1 -75 -2 -80 -1 -4 -1 -12 1
-18 1 -5 1 -41 1 -80 -1 -82 -1 -83 -1 -158 0 -31 -1 -61 -1 -65 -1 -4 -1 -9
1 -12 1 -3 2 -27 3 -55 l2 -50 93 0 92 -1 1 96 c1 111 3 130 25 172 29 56 127
128 198 145 124 30 209 23 303 -22 61 -30 112 -88 137 -157 27 -72 29 -324 3
-281 -6 10 -48 10 -64 0 -7 -4 -14 -4 -16 0 -3 5 -31 7 -64 6 -59 -3 -116 -3
-143 -2 -23 2 -174 -13 -181 -17 -3 -2 -20 -6 -38 -9 -50 -9 -153 -46 -181
-65 -14 -9 -29 -19 -35 -21 -80 -32 -188 -171 -210 -274 -14 -61 -7 -208 12
-255 3 -8 7 -21 9 -28 6 -32 58 -104 107 -148 50 -45 90 -65 203 -101 39 -13
286 -7 302 7 1 1 5 3 10 4 24 4 113 43 146 64 49 31 51 32 109 83 26 23 48 40
48 38 1 -2 2 -49 3 -104 l1 -100 108 -3 c105 -3 107 -2 108 20 5 128 0 1124
-6 1154 -5 21 -9 44 -11 50 -15 75 -63 162 -120 218 -78 76 -158 115 -284 139
-87 17 -270 10 -304 -10 -6 -4 -15 -8 -21 -8 -18 -1 -89 -28 -122 -46 l-33
-19 0 48 0 48 -90 1 c-73 0 -91 -3 -94 -16z m860 -833 c6 -4 10 -62 9 -146 -1
-135 -2 -142 -28 -179 -50 -73 -94 -111 -182 -159 -91 -50 -171 -69 -275 -66
-186 6 -295 145 -246 314 36 124 173 214 356 234 30 4 56 7 57 8 6 4 301 -1
309 -6z"/>
<path d="M5226 9453 c-2 -3 -19 -7 -38 -9 -45 -6 -139 -40 -187 -67 -41 -24
-150 -119 -141 -124 3 -1 -2 -11 -11 -21 -51 -59 -73 -229 -43 -316 23 -64 38
-96 46 -96 5 0 8 -6 8 -14 0 -8 16 -27 36 -42 19 -16 41 -34 48 -40 17 -16
111 -63 160 -81 52 -19 48 -17 201 -58 72 -18 131 -35 133 -36 1 -1 7 -3 12
-4 6 -1 12 -4 15 -5 3 -1 8 -3 13 -4 32 -8 105 -52 138 -83 156 -151 57 -362
-186 -400 -67 -10 -201 -6 -217 8 -2 1 -6 2 -10 3 -39 9 -94 33 -120 52 -17
13 -35 24 -40 25 -16 1 -57 63 -73 110 -9 27 -16 69 -15 94 2 35 -1 45 -14 45
-9 1 -47 2 -85 3 -40 2 -74 -2 -80 -8 -7 -8 -11 -94 -11 -266 l1 -254 96 -3
96 -3 -2 41 c-3 45 5 55 31 41 102 -57 191 -76 358 -75 141 1 188 8 273 40 83
31 202 115 202 143 0 6 4 11 8 11 12 0 41 54 61 113 32 97 26 205 -16 297 -18
40 -61 99 -83 116 -8 7 -27 23 -42 35 -54 47 -203 113 -303 135 -5 1 -30 7
-55 14 -25 7 -52 14 -60 16 -90 20 -230 73 -230 86 0 5 -6 8 -14 8 -8 0 -28
21 -45 46 -27 42 -30 53 -28 114 3 57 8 74 32 106 38 50 51 61 104 86 58 27
92 33 177 31 79 -2 184 -32 217 -63 11 -11 26 -20 31 -20 16 -1 70 -79 83
-120 6 -19 11 -55 12 -78 0 -24 3 -47 5 -50 2 -4 44 -7 93 -7 l88 0 1 250 c1
138 0 257 -2 266 -4 14 -19 16 -94 16 -54 -1 -90 -5 -91 -12 0 -5 -2 -26 -4
-45 -1 -19 -3 -36 -4 -38 0 -2 -14 6 -30 17 -16 12 -34 21 -41 21 -6 0 -23 6
-38 14 -15 8 -45 17 -67 21 -22 4 -51 9 -65 12 -34 6 -189 10 -194 6z"/>
<path d="M7271 9449 c-45 -9 -132 -39 -141 -48 -3 -4 -23 -15 -45 -26 -35 -18
-164 -137 -190 -176 -5 -8 -16 -24 -23 -35 -57 -87 -118 -261 -129 -371 -12
-121 -7 -271 12 -353 3 -14 8 -38 11 -54 8 -49 63 -172 103 -233 75 -115 175
-197 296 -243 33 -12 69 -24 80 -25 11 -2 36 -7 55 -12 36 -10 196 -9 240 1
14 3 41 9 60 12 19 4 40 9 45 13 6 3 12 6 15 6 55 7 215 93 274 147 11 10 23
18 27 18 4 0 10 9 14 19 4 14 -8 41 -35 85 -23 37 -44 66 -46 66 -2 0 -27 -17
-55 -39 -100 -76 -259 -142 -346 -145 -18 -1 -33 -4 -33 -7 0 -3 -10 -5 -22
-3 -13 1 -47 5 -77 9 -146 17 -269 109 -336 250 -38 82 -52 135 -61 233 -6 70
-5 72 18 73 12 0 258 1 545 1 395 1 523 4 527 13 13 36 -3 216 -28 307 -37
136 -116 276 -193 342 -14 11 -31 26 -38 33 -37 35 -143 93 -216 118 -91 30
-224 40 -308 24z m264 -210 c29 -11 65 -31 79 -44 15 -14 29 -25 32 -25 9 0
42 -41 68 -85 27 -45 80 -171 77 -183 -1 -1 5 -17 12 -35 28 -69 52 -65 -409
-65 l-415 0 6 27 c3 14 7 35 9 46 7 32 32 99 55 142 11 22 17 43 14 47 -4 3
-1 6 5 6 7 0 12 4 12 10 0 11 21 39 60 79 94 99 257 132 395 80z"/>
<path d="M565 7666 c-9 -30 -11 -65 -4 -60 5 3 6 -2 2 -11 -9 -26 -10 -58 -1
-83 4 -13 5 -21 0 -19 -4 3 -7 -10 -7 -29 0 -19 3 -34 7 -34 4 0 3 -13 -2 -30
-5 -19 -5 -30 1 -30 6 0 7 -5 3 -11 -9 -16 -11 -109 -1 -109 4 0 3 -8 -2 -18
-5 -10 -6 -24 -2 -31 5 -7 5 -28 1 -47 -5 -19 -4 -31 1 -28 5 3 6 -2 2 -11 -9
-26 -10 -58 -1 -83 4 -13 5 -21 0 -19 -4 3 -7 -10 -7 -29 0 -19 3 -34 7 -34 4
0 3 -13 -2 -30 -5 -19 -5 -30 1 -30 6 0 6 -7 2 -17 -10 -22 -10 -94 0 -110 4
-6 4 -14 -1 -17 -9 -5 -9 -47 1 -63 4 -7 4 -14 -1 -17 -9 -5 -9 -47 1 -63 4
-7 4 -14 -1 -17 -9 -5 -9 -47 1 -63 4 -7 4 -14 -1 -17 -9 -5 -9 -47 1 -63 4
-7 4 -14 -1 -17 -9 -5 -9 -47 1 -63 4 -7 4 -14 -1 -17 -9 -5 -9 -47 1 -63 4
-7 4 -14 -1 -17 -7 -4 -8 -50 -2 -66 1 -3 3 -12 4 -20 1 -13 93 -14 711 -14
l710 0 3 756 2 756 -711 0 c-519 0 -711 -3 -714 -12z"/>
<path d="M2595 7674 c-11 -4 -13 -2582 -3 -2600 5 -7 103 -11 103 -4 0 1 17 2
38 3 20 1 37 0 37 -3 0 -6 110 -2 128 5 6 2 12 1 12 -3 0 -9 252 -8 267 1 7 4
14 4 16 0 4 -6 142 -9 142 -3 0 1 17 2 38 3 20 1 37 0 37 -3 0 -6 110 -2 128
5 6 2 12 1 12 -3 0 -9 252 -8 267 1 7 4 14 4 16 0 4 -7 132 -9 147 -3 3 1 13
1 23 1 16 -2 17 64 17 1302 l0 1305 -708 0 c-389 -1 -711 -2 -717 -4z"/>
<path d="M4625 7666 c-2 -6 -3 -346 -2 -756 l2 -745 705 0 c388 0 710 1 715 2
7 2 10 262 10 756 l-1 752 -713 1 c-528 2 -713 -1 -716 -10z"/>
<path d="M6650 6374 c0 -1036 3 -1304 13 -1304 113 -5 177 -3 177 3 0 5 5 5
10 2 14 -9 215 -9 229 -1 6 4 11 4 11 -1 0 -9 83 -8 106 1 8 3 14 2 14 -2 0
-7 166 -5 188 3 6 2 12 1 12 -3 0 -8 85 -6 106 2 8 3 14 2 14 -2 0 -4 61 -7
135 -7 74 0 135 4 135 8 0 5 4 5 10 2 14 -8 231 -10 255 -2 18 6 20 14 17 59
-1 29 -2 58 -2 63 5 108 4 152 -3 163 -6 7 -6 12 0 12 5 0 8 15 6 33 -2 17 -4
37 -3 42 5 147 4 222 -3 233 -5 6 -5 12 -1 12 5 0 8 30 6 68 -1 37 -2 72 -2
77 5 120 5 152 -3 163 -6 7 -6 12 0 12 5 0 8 15 6 33 -2 17 -4 37 -3 42 0 6 1
46 3 90 2 44 -1 86 -6 93 -5 6 -6 12 -1 12 11 0 11 131 0 148 -4 7 -4 12 1 12
4 0 7 44 6 97 -2 54 -3 103 -3 108 0 6 1 39 3 75 2 36 -1 71 -6 78 -6 7 -6 12
0 12 10 0 9 83 -2 100 -3 5 -3 10 2 10 10 0 10 291 -1 308 -4 7 -4 12 1 12 10
0 10 131 -1 148 -4 7 -4 12 1 12 10 0 10 181 0 198 -5 6 -4 12 0 12 10 0 10
41 0 57 -5 8 -214 11 -717 10 l-710 0 0 -1303z"/>
<path d="M8731 6340 c-9 -7 -8 -164 2 -171 4 -3 41 -4 82 -3 68 1 77 -1 87
-20 7 -11 13 -25 14 -31 1 -5 23 -59 48 -118 25 -60 46 -115 46 -123 0 -8 4
-14 8 -14 5 0 9 -6 9 -12 0 -7 10 -35 23 -63 12 -27 25 -59 30 -70 4 -11 21
-54 38 -95 17 -41 68 -165 112 -275 44 -110 85 -209 90 -220 34 -74 39 -96 29
-123 -6 -15 -10 -28 -10 -30 1 -1 -6 -16 -14 -32 -9 -17 -13 -30 -10 -30 3 0
-1 -10 -9 -22 -7 -13 -19 -41 -26 -63 -16 -49 -92 -199 -112 -218 -42 -43 -94
-55 -235 -56 l-63 -1 0 -94 c0 -66 4 -95 13 -98 16 -6 215 -2 251 6 78 15 179
86 231 162 51 73 160 316 147 328 -3 3 0 6 6 6 7 0 11 3 10 8 -2 8 9 46 27 87
8 17 24 59 36 95 12 36 26 70 30 76 5 6 10 19 12 30 2 10 9 30 15 44 12 27
122 318 126 335 2 6 9 24 15 40 7 17 14 35 15 40 4 13 16 46 27 70 5 11 19 49
32 85 56 152 172 463 186 495 28 66 30 73 18 77 -7 2 -113 4 -237 4 l-225 -1
0 -90 0 -89 92 0 91 0 -25 -66 c-14 -36 -29 -78 -35 -95 -5 -16 -12 -37 -16
-45 -3 -8 -6 -17 -7 -20 -1 -3 -5 -12 -8 -20 -14 -34 -59 -156 -61 -165 -1 -5
-6 -17 -11 -25 -5 -8 -10 -19 -11 -25 -1 -5 -21 -59 -44 -120 -23 -60 -43
-114 -44 -120 -2 -5 -8 -23 -15 -40 -6 -16 -19 -50 -28 -74 l-17 -45 -14 35
c-8 19 -19 45 -25 59 -6 14 -11 28 -12 33 -2 4 -4 9 -5 12 -1 3 -3 8 -4 13 -1
4 -7 16 -13 27 -6 11 -11 23 -12 28 0 4 -8 24 -17 45 -8 20 -17 44 -20 52 -6
25 -112 281 -118 287 -3 4 -6 13 -6 20 0 8 -8 33 -19 56 -10 23 -44 107 -76
187 -82 209 -54 186 -233 185 -85 0 -157 -2 -161 -5z"/>
<path d="M1665 5950 l-59 -5 -1 -37 c-1 -21 -4 -40 -7 -44 -6 -6 -49 15 -59
29 -3 5 -9 8 -13 8 -3 -1 -7 -1 -8 0 -2 0 -10 2 -18 4 -8 2 -40 11 -70 20 -81
24 -240 28 -325 9 -231 -52 -374 -209 -377 -413 -2 -150 86 -282 235 -350 84
-38 188 -73 262 -87 187 -36 319 -104 379 -197 26 -39 29 -129 6 -180 -19 -42
-62 -97 -76 -97 -4 0 -15 -6 -23 -14 -39 -34 -125 -53 -231 -51 -117 1 -137 5
-213 39 -120 53 -174 132 -176 262 l-1 40 -92 0 -93 -1 0 -265 0 -265 94 0 94
0 1 45 c1 25 4 44 9 43 4 -2 20 -9 35 -16 35 -19 143 -55 162 -55 8 -1 31 -5
50 -9 53 -14 293 -5 319 11 4 3 22 8 40 11 59 10 163 69 215 120 172 171 159
460 -28 602 -22 17 -63 43 -90 58 -51 28 -224 91 -276 100 -16 3 -40 9 -53 14
-14 6 -27 7 -30 5 -3 -3 -13 -1 -24 4 -10 6 -38 16 -63 23 -58 17 -129 52
-156 75 -78 69 -76 209 4 282 62 57 66 59 120 76 49 14 196 19 217 7 6 -3 12
-6 15 -6 30 -5 85 -27 109 -44 16 -12 32 -21 36 -21 10 0 56 -53 73 -85 17
-33 21 -48 26 -118 2 -26 6 -51 9 -54 6 -5 18 -6 127 -4 l55 1 -1 253 c-1 138
-2 257 -3 263 -1 15 -50 20 -126 14z"/>
<path d="M4703 5952 c-24 -2 -43 -6 -44 -10 -5 -58 -2 -166 6 -172 6 -4 47 -7
93 -6 83 2 90 -1 82 -39 -3 -15 -1 -57 3 -88 2 -15 0 -30 -5 -33 -4 -3 -6 -10
-2 -15 9 -15 11 -99 3 -105 -5 -2 -6 -10 -4 -17 11 -29 12 -77 1 -77 -7 0 -7
-3 -1 -8 8 -6 12 -106 5 -137 -1 -5 -1 -14 0 -20 1 -5 4 -86 6 -180 2 -93 6
-183 9 -200 3 -16 7 -42 9 -56 6 -45 44 -152 71 -202 51 -91 180 -194 265
-211 14 -2 45 -9 70 -14 94 -18 238 -1 326 38 60 26 130 75 174 122 l37 40 0
-104 -1 -103 95 -1 c52 0 99 2 106 4 9 3 12 193 12 798 l-1 794 -34 0 c-19 1
-83 1 -144 1 -60 0 -141 0 -180 -1 l-70 0 0 -93 0 -93 101 0 c55 1 103 -2 106
-7 8 -13 11 -57 4 -57 -9 0 -7 -43 3 -58 4 -7 2 -12 -4 -12 -7 0 -8 -6 -2 -17
9 -20 8 -104 -2 -129 -3 -8 -2 -23 3 -32 5 -10 6 -36 1 -59 -4 -24 -5 -45 -2
-48 8 -8 10 -45 2 -45 -8 0 -5 -43 4 -58 4 -7 2 -12 -4 -12 -7 0 -8 -6 -1 -18
5 -10 6 -36 1 -59 -4 -24 -5 -45 -2 -48 8 -8 10 -45 2 -45 -8 0 -5 -43 4 -58
4 -7 2 -12 -4 -12 -7 0 -8 -6 0 -19 7 -13 7 -28 0 -45 -5 -14 -6 -26 -1 -26
13 0 -7 -78 -34 -136 -42 -85 -115 -153 -203 -186 -47 -18 -78 -22 -172 -22
l-115 -1 -56 36 c-51 34 -119 117 -119 147 0 6 -6 31 -14 54 -8 24 -18 77 -21
118 -9 104 -10 364 -1 378 4 7 4 12 -1 12 -10 0 -9 213 1 229 4 6 4 11 -1 11
-10 0 -9 213 1 229 4 6 4 11 -1 11 -4 0 -7 36 -6 80 2 61 -1 82 -11 86 -16 6
-279 11 -343 6z"/>
<path d="M3120 4850 c-4 -3 -8 -82 -8 -175 -1 -94 -1 -179 -1 -190 -1 -16 -7
-20 -28 -19 -16 1 -30 3 -33 4 -3 1 -9 1 -15 0 -5 -1 -34 -2 -63 -2 l-53 0 3
-92 3 -91 93 0 92 0 0 -60 c1 -33 1 -282 1 -553 0 -306 4 -505 11 -525 35
-111 109 -192 206 -224 46 -16 85 -19 207 -19 l150 1 0 108 1 107 -126 1
c-146 1 -151 1 -183 25 -48 37 -48 42 -48 571 0 274 0 514 0 533 l1 35 140 -1
c91 -1 143 3 147 10 12 18 10 165 -1 169 -6 2 -71 4 -144 4 -73 0 -135 3 -138
6 -3 3 -6 89 -6 191 1 136 -3 186 -11 187 -38 4 -190 3 -197 -1z"/>
<path d="M7593 4844 c-2 -6 -3 -48 -1 -94 l3 -84 89 -1 89 0 1 -268 c1 -147 0
-267 -2 -267 -3 0 -88 62 -109 80 -7 6 -15 10 -18 10 -3 -1 -30 8 -60 19 -85
32 -111 36 -245 36 -132 0 -215 -18 -272 -57 -14 -10 -30 -18 -35 -18 -18 0
-124 -103 -157 -153 -61 -93 -91 -173 -113 -302 -9 -53 -8 -289 1 -340 17 -98
74 -234 121 -293 16 -21 71 -76 92 -93 31 -25 131 -78 156 -83 12 -2 29 -7 37
-10 47 -17 210 -25 300 -13 51 6 123 27 139 40 8 7 16 11 18 10 6 -5 83 32 83
39 0 5 5 8 11 8 7 0 20 9 29 20 22 25 32 13 30 -33 -1 -17 -2 -46 -1 -63 l1
-31 105 0 105 1 0 973 c0 771 -3 973 -12 974 -7 1 -96 2 -197 3 -124 1 -185
-3 -188 -10z m-69 -749 c90 -31 162 -87 218 -170 l33 -50 0 -303 0 -304 -61
-58 c-58 -54 -157 -113 -214 -126 -51 -12 -176 -11 -218 1 -23 7 -45 13 -48
14 -2 0 -25 10 -49 22 -97 48 -171 150 -200 275 -27 118 -15 345 25 449 6 17
10 30 9 30 -8 0 68 102 91 124 23 21 98 74 110 77 3 0 13 4 22 8 81 36 196 40
282 11z"/>
<path d="M563 4146 c-9 -13 -9 -76 -1 -76 4 0 3 -13 -2 -30 -5 -19 -5 -30 1
-30 6 0 7 -5 3 -11 -9 -16 -11 -109 -1 -109 4 0 3 -8 -2 -18 -5 -10 -6 -24 -2
-31 5 -7 5 -28 1 -47 -5 -19 -4 -31 1 -28 5 3 6 -2 2 -11 -9 -26 -10 -58 -1
-83 4 -13 5 -21 0 -19 -4 3 -7 -10 -7 -29 0 -19 3 -34 7 -34 4 0 3 -13 -2 -30
-5 -19 -5 -30 1 -30 6 0 7 -5 3 -11 -9 -16 -11 -109 -1 -109 4 0 3 -8 -2 -18
-5 -10 -6 -24 -2 -31 5 -7 5 -28 1 -47 -5 -19 -4 -32 1 -28 5 3 5 -5 1 -18 -9
-25 -8 -57 1 -83 4 -9 3 -14 -1 -11 -4 2 -7 -11 -7 -30 0 -19 3 -34 7 -34 4 0
3 -13 -2 -30 -5 -19 -5 -30 1 -30 6 0 7 -5 3 -11 -9 -16 -11 -110 -1 -116 4
-2 4 -9 0 -16 -10 -16 -10 -58 -1 -63 5 -3 5 -10 1 -17 -10 -16 -10 -58 -1
-63 5 -3 5 -10 1 -17 -10 -16 -10 -58 -1 -63 5 -3 5 -10 1 -17 -10 -16 -10
-58 -1 -63 5 -3 5 -10 1 -17 -10 -16 -10 -58 -1 -63 5 -3 5 -10 1 -17 -10 -16
-10 -58 -1 -63 5 -3 5 -10 1 -17 -10 -16 -10 -58 -1 -63 5 -3 5 -10 2 -16 -10
-16 -11 -89 -2 -116 4 -13 5 -21 0 -19 -4 3 -7 -10 -7 -29 0 -19 3 -34 7 -34
4 0 3 -13 -2 -30 -5 -19 -5 -30 1 -30 6 0 7 -5 3 -11 -9 -16 -11 -109 -1 -109
4 0 3 -8 -2 -18 -5 -10 -6 -24 -2 -31 5 -7 5 -28 1 -47 -5 -19 -4 -32 1 -28 5
3 5 -5 1 -18 -9 -25 -8 -57 1 -83 4 -9 3 -14 -1 -11 -4 2 -7 -11 -7 -30 0 -19
3 -34 7 -34 4 0 3 -13 -2 -30 -5 -19 -5 -30 1 -30 6 0 7 -5 3 -11 -9 -16 -11
-109 -1 -109 4 0 3 -8 -2 -18 -5 -10 -6 -24 -2 -31 5 -7 5 -28 1 -47 -5 -19
-4 -32 1 -28 5 3 5 -5 1 -18 -9 -24 -7 -76 2 -85 3 -3 1 -13 -4 -22 -22 -41
-23 -41 706 -41 384 0 705 0 712 0 9 0 12 302 12 1478 l0 1478 -711 0 c-430 0
-713 -4 -716 -10z"/>
<path d="M4626 4140 c-3 -8 -4 -673 -4 -1477 l1 -1463 31 0 c26 0 896 0 1281
0 l120 0 -1 1463 c-1 804 -2 1469 -3 1477 -1 14 -78 16 -711 16 -631 0 -710
-2 -714 -16z"/>
<path d="M8680 4095 c-3 -494 0 -2888 3 -2891 3 -3 649 -5 1315 -4 l112 0 0
1478 0 1478 -715 0 -715 0 0 -61z"/>
<path d="M2589 2706 c-6 -6 -3 -1495 3 -1501 5 -5 109 -6 1001 -5 l427 0 0
755 0 755 -713 0 c-393 0 -716 -2 -718 -4z"/>
<path d="M6650 1955 l0 -755 58 0 c48 0 987 0 1282 0 l95 0 0 48 c-1 26 -5 53
-9 60 -4 7 -4 12 1 12 4 0 7 44 6 97 -2 54 -3 103 -3 108 0 6 1 39 3 75 2 36
-1 71 -6 78 -6 7 -6 12 0 12 10 0 9 83 -2 100 -3 5 -3 10 2 10 10 0 10 291 -1
308 -4 7 -4 12 1 12 10 0 10 131 -1 148 -4 7 -4 12 1 12 10 0 10 181 0 198 -5
6 -5 12 0 12 4 0 8 34 8 75 0 41 -4 75 -9 75 -5 0 -4 6 1 13 5 6 8 18 7 25 -1
6 -2 17 -3 22 -1 7 -247 10 -716 10 l-715 0 0 -755z"/>
</g>
</svg>
